<?xml version="1.0" standalone="no"?><!DOCTYPE svg PUBLIC "-//W3C//DTD SVG 1.1//EN" "http://www.w3.org/Graphics/SVG/1.1/DTD/svg11.dtd"><svg t="1761642778397" class="icon" viewBox="0 0 1024 1024" version="1.1" xmlns="http://www.w3.org/2000/svg" p-id="12464" xmlns:xlink="http://www.w3.org/1999/xlink" width="200" height="200"><path d="M964.504329 511.999l39.999765-239.998594-64.419622-27.619838h-0.02l-227.558667-92.379459-117.219313 119.999297c-0.499997-0.419998-0.999994-0.859995-1.479991-1.299992l-1.299993 1.299992-73.123571-120.651293-10.875937 0.651996c-0.583997 0.249999-2.095988 0.879995-4.377974 1.82399l-71.62158 118.175307-62.947631-62.947631c-70.853585 29.05583-144.009156 59.071654-153.051104 62.947631l39.999766 239.998594 131.999227-39.999766v531.996883h443.997398v-531.996883l131.999227 39.999766z" fill="#f0f9ff" p-id="12465" data-spm-anchor-id="a313x.search_index.0.i10.54813a813Bt5sj" class="selected"></path><path d="M712.505805 152.001109l-39.999765-131.999226h-237.998606l-39.999766 131.999226 68.943596 68.943596 49.055713-80.943525 40.99976 67.649603 40.99976-67.649603 49.055712 80.943525 68.943596-68.943596z" fill="#FEC652" p-id="12466"></path><path d="M957.904367 361.999879c-9.819942-17.0199-5.11997-37.739779 9.379945-49.999707-14.499915-12.259928-19.199888-32.979807-9.379945-49.999707a38.695773 38.695773 0 0 1 5.711967-7.531956l-23.531862-10.087941h-0.02c-9.039947 2.759984-17.0199 8.719949-22.15987 17.619897-9.819942 17.0199-5.11997 37.739779 9.379945 49.999707-14.499915 12.259928-19.199888 32.979807-9.379945 49.999707s30.119824 23.299863 47.979719 16.879901c1.959989 10.759937 7.959953 20.119882 16.459903 26.119847l4.005977-24.047859c-11.519933-1.557991-22.14387-8.029953-28.445834-18.951889z" fill="#FFFFFF" p-id="12467"></path><path d="M963.614334 254.468509a38.855772 38.855772 0 0 0-5.711967 7.531956c-9.819942 17.0199-5.11997 37.739779 9.379945 49.999707-14.499915 12.259928-19.199888 32.979807-9.379945 49.999707 6.301963 10.923936 16.925901 17.395898 28.445834 18.951889l18.153893-108.951362-40.88776-17.531897z" fill="#FEC652" p-id="12468"></path><path d="M659.686115 322.000113c-9.819942-17.0199-5.11997-37.739779 9.379945-49.999707-0.499997-0.419998-0.999994-0.859995-1.479992-1.299992l66.947608-66.949608a41.179759 41.179759 0 0 0-23.409863 1.369992c-2.359986-13.079923-10.719937-24.079859-22.239869-29.499827l-95.079443 95.079443c0.479997 0.439997 0.979994 0.879995 1.479991 1.299992-14.499915 12.259928-19.199888 32.979807-9.379945 49.999707s30.119824 23.299863 47.979719 16.879901c3.37998 18.679891 18.959889 33.119806 38.619774 33.119806 17.311899 0 31.449816-11.201934 36.889783-26.631844a42.013754 42.013754 0 0 1-1.729989-6.487962c-17.857895 6.419962-38.157776 0.139999-47.977719-16.879901z" fill="#FFFFFF" p-id="12469"></path><path d="M759.105532 322.000113c9.819942-17.0199 5.11997-37.739779-9.379945-49.999707 14.499915-12.259928 19.199888-32.979807 9.379945-49.999707-5.587967-9.685943-14.575915-15.879907-24.569856-18.249893l-66.947608 66.949608c0.479997 0.439997 0.979994 0.879995 1.479992 1.299992-14.499915 12.259928-19.199888 32.979807-9.379945 49.999707s30.119824 23.299863 47.979719 16.879901c0.403998 2.229987 0.991994 4.395974 1.729989 6.487962 0.737996-2.091988 1.325992-4.257975 1.72999-6.487962 17.857895 6.419962 38.157776 0.139999 47.977719-16.879901z" fill="#FEC652" p-id="12470"></path><path d="M773.905445 601.998473c-9.819942-17.0199-5.11997-37.739779 9.379945-49.999707-14.499915-12.259928-19.199888-32.979807-9.379945-49.999707 9.819942-17.0199 30.119824-23.299863 47.979719-16.879901a41.719756 41.719756 0 0 1 4.619973-12.907925c-6.709961-12.01993-19.195888-20.211882-33.999801-20.211881-19.659885 0-35.239794 14.439915-38.619773 33.119806-17.859895-6.419962-38.159776-0.139999-47.979719 16.879901s-5.11997 37.739779 9.379945 49.999707c-14.499915 12.259928-19.199888 32.979807-9.379945 49.999707s30.119824 23.299863 47.979719 16.879901c3.37998 18.679891 18.959889 33.119806 38.619773 33.119806 14.803913 0 27.28984-8.191952 33.999801-20.211882a41.701756 41.701756 0 0 1-4.619973-12.907924c-17.859895 6.419962-38.159776 0.139999-47.979719-16.879901z" fill="#FFFFFF" p-id="12471"></path><path d="M832.505102 619.338371v-134.679211c-0.459997 0.139999-0.919995 0.299998-1.379992 0.459998a41.719756 41.719756 0 0 0-4.619973-12.907925 41.701756 41.701756 0 0 0-4.619973 12.907925c-17.859895-6.419962-38.159776-0.139999-47.979719 16.879901s-5.11997 37.739779 9.379945 49.999707c-14.499915 12.259928-19.199888 32.979807-9.379945 49.999707s30.119824 23.299863 47.979719 16.879901a41.719756 41.719756 0 0 0 4.619973 12.907924 41.701756 41.701756 0 0 0 4.619973-12.907924c0.459997 0.159999 0.919995 0.319998 1.379992 0.459997zM713.857797 776.261452c-0.489997 0.139999-0.975994 0.299998-1.461991 0.457997 0.421998 0.135999 0.849995 0.245999 1.269992 0.397998 0.052-0.289998 0.133999-0.567997 0.191999-0.855995zM712.395806 911.272661c0.485997 0.157999 0.971994 0.317998 1.461991 0.457997-0.058-0.287998-0.139999-0.565997-0.191999-0.853995-0.419998 0.149999-0.847995 0.259998-1.269992 0.395998z" fill="#FEC652" p-id="12472"></path><path d="M665.686079 893.996762c-9.819942-17.0199-5.11997-37.739779 9.379946-49.999707-14.499915-12.259928-19.199888-32.979807-9.379946-49.999707 9.321945-16.157905 28.087835-22.613867 45.247735-17.733896-3.697978-18.259893-19.071888-32.265811-38.427774-32.265811-19.659885 0-35.239794 14.439915-38.619774 33.119806-17.859895-6.419962-38.159776-0.139999-47.979719 16.879901s-5.11997 37.739779 9.379945 49.999707c-14.499915 12.259928-19.199888 32.979807-9.379945 49.999707s30.119824 23.299863 47.979719 16.879901c3.37998 18.679891 18.959889 33.119806 38.619774 33.119806 19.355887 0 34.729797-14.005918 38.427774-32.265811-17.159899 4.879971-35.92379-1.575991-45.247735-17.733896z" fill="#FFFFFF" p-id="12473"></path><path d="M712.395806 776.719449c-0.485997-0.157999-0.971994-0.317998-1.461992-0.457997 0.058 0.287998 0.139999 0.565997 0.191999 0.853995 0.419998-0.149999 0.847995-0.259998 1.269993-0.395998zM710.933814 911.730658c0.489997-0.137999 0.975994-0.299998 1.461992-0.457997-0.421998-0.135999-0.849995-0.245999-1.269993-0.397998-0.054 0.289998-0.133999 0.567997-0.191999 0.855995z" fill="#FEC652" p-id="12474"></path><path d="M759.105532 893.996762c9.819942-17.0199 5.11997-37.739779-9.379945-49.999707 14.499915-12.259928 19.199888-32.979807 9.379945-49.999707-9.321945-16.157905-28.087835-22.613867-45.247735-17.733896-0.058 0.287998-0.139999 0.565997-0.191999 0.853995-0.419998-0.151999-0.847995-0.259998-1.269992-0.397998-0.421998 0.135999-0.849995 0.245999-1.269993 0.397998-0.052-0.289998-0.133999-0.567997-0.191999-0.853995-17.159899-4.879971-35.92379 1.575991-45.247735 17.733896-9.819942 17.0199-5.11997 37.739779 9.379946 49.999707-14.499915 12.259928-19.199888 32.979807-9.379946 49.999707 9.321945 16.157905 28.087835 22.613867 45.247735 17.733896 0.058-0.287998 0.139999-0.565997 0.191999-0.853995 0.419998 0.151999 0.847995 0.259998 1.269993 0.397998 0.421998-0.135999 0.849995-0.245999 1.269992-0.397998 0.052 0.289998 0.133999 0.567997 0.191999 0.853995 17.159899 4.879971 35.92379-1.575991 45.247735-17.733896zM429.727462 963.996352c14.499915-12.259928 19.199888-32.979807 9.379945-49.999707-9.713943-16.835901-29.679826-23.141864-47.397722-17.0619-0.012 0.062-0.03 0.119999-0.042 0.181998-0.089999-0.032-0.179999-0.054-0.269998-0.083999-0.089999 0.032-0.181999 0.052-0.269999 0.083999-0.012-0.062-0.03-0.119999-0.042-0.181998-17.717896-6.079964-37.683779 0.225999-47.397722 17.0619-9.819942 17.0199-5.11997 37.739779 9.379945 49.999707-11.739931 9.939942-17.0599 25.419851-13.439921 39.999765h103.539393c3.619979-14.579915-1.69999-30.059824-13.439921-39.999765zM319.10811 621.998355c-9.819942-17.0199-30.119824-23.299863-47.979719-16.879901-1.465991-8.097953-5.229969-15.39391-10.619937-21.067876-5.389968 5.673967-9.153946 12.969924-10.619938 21.067876-0.459997-0.159999-0.919995-0.319998-1.379992-0.459997v134.679211c0.459997-0.139999 0.919995-0.299998 1.379992-0.459997 1.465991 8.097953 5.229969 15.39391 10.619938 21.067876 5.389968-5.673967 9.153946-12.969924 10.619937-21.067876 17.859895 6.419962 38.159776 0.139999 47.979719-16.879901s5.11997-37.739779-9.379945-49.999707c14.499915-12.259928 19.199888-32.979807 9.379945-49.999708zM187.108884 222.000699c-3.799978-6.579961-9.159946-11.559932-15.35991-14.819913l-98.331424 42.143753 6.661961 39.985766c9.339945 4.179976 20.279881 4.619973 30.399822 0.979994 3.37998 18.679891 18.959889 33.119806 38.619773 33.119806s35.239794-14.439915 38.619774-33.119806c0.911995 0.327998 1.833989 0.599996 2.755984 0.861995a41.185759 41.185759 0 0 0-12.745925-19.151888c14.499915-12.259928 19.199888-32.979807 9.379945-49.999707zM393.397675 499.589073c0.857995 0.253999 1.71599 0.477997 2.581985 0.673996-0.099999-0.461997-0.225999-0.915995-0.309998-1.383992-0.751996 0.269998-1.513991 0.483997-2.271987 0.709996zM395.97966 363.733869c-0.863995 0.197999-1.72399 0.419998-2.581985 0.673996 0.757996 0.225999 1.519991 0.439997 2.269987 0.709996 0.084-0.467997 0.211999-0.919995 0.311998-1.383992z" fill="#FEC652" p-id="12475"></path><path d="M347.687943 481.999176c-9.819942-17.0199-5.11997-37.739779 9.379945-49.999707-14.499915-12.259928-19.199888-32.979807-9.379945-49.999707 8.939948-15.495909 26.563844-22.051871 43.127747-18.263893-3.885977-17.997895-19.141888-31.735814-38.309775-31.735814-19.659885 0-35.239794 14.439915-38.619774 33.119806-17.859895-6.419962-38.159776-0.139999-47.979719 16.879901s-5.11997 37.739779 9.379945 49.999707c-14.499915 12.259928-19.199888 32.979807-9.379945 49.999707s30.119824 23.299863 47.979719 16.879901c3.37998 18.679891 18.959889 33.119806 38.619774 33.119806 19.165888 0 34.421798-13.73792 38.309775-31.735814-16.563903 3.787978-34.1878-2.767984-43.127747-18.263893z" fill="#FFFFFF" p-id="12476"></path><path d="M393.397675 364.409865a40.485763 40.485763 0 0 0-2.581985-0.673996c0.099999 0.461997 0.225999 0.915995 0.311998 1.383992 0.749996-0.269998 1.511991-0.485997 2.269987-0.709996zM390.81569 500.263069c0.863995-0.197999 1.72399-0.419998 2.581985-0.673996-0.757996-0.225999-1.519991-0.439997-2.269987-0.709996-0.085999 0.467997-0.211999 0.921995-0.311998 1.383992z" fill="#FEC652" p-id="12477"></path><path d="M439.107407 481.999176c9.819942-17.0199 5.11997-37.739779-9.379945-49.999707 14.499915-12.259928 19.199888-32.979807 9.379945-49.999707-8.939948-15.495909-26.563844-22.053871-43.127747-18.263893-0.099999 0.461997-0.225999 0.915995-0.309998 1.383992-0.751996-0.269998-1.511991-0.483997-2.269987-0.709996-0.757996 0.225999-1.519991 0.439997-2.269987 0.709996-0.084-0.467997-0.209999-0.921995-0.311998-1.383992-16.563903-3.787978-34.1878 2.769984-43.127747 18.263893-9.819942 17.0199-5.11997 37.739779 9.379945 49.999707-14.499915 12.259928-19.199888 32.979807-9.379945 49.999707 8.939948 15.495909 26.563844 22.051871 43.127747 18.263893 0.099999-0.461997 0.225999-0.915995 0.311998-1.383992 0.749996 0.269998 1.511991 0.483997 2.269987 0.709996 0.757996-0.225999 1.519991-0.439997 2.269987-0.709996 0.084 0.467997 0.209999 0.921995 0.309998 1.383992 16.563903 3.787978 34.1878-2.767984 43.127747-18.263893z" fill="#FEC652" p-id="12478"></path><path d="M832.005105 371.99982c-11.039935 0-19.999883 8.959948-19.999883 19.999883s8.959948 19.999883 19.999883 19.999883 19.999883-8.959948 19.999883-19.999883-8.959948-19.999883-19.999883-19.999883zM592.006511 571.998648c11.039935 0 19.999883-8.959948 19.999883-19.999882s-8.959948-19.999883-19.999883-19.999883-19.999883 8.959948-19.999883 19.999883 8.959948 19.999883 19.999883 19.999882zM512.00698 411.999586c-11.039935 0-19.999883 8.959948-19.999883 19.999883s8.959948 19.999883 19.999883 19.999883 19.999883-8.959948 19.999883-19.999883-8.959948-19.999883-19.999883-19.999883zM432.007449 691.997945c-11.039935 0-19.999883 8.959948-19.999883 19.999883s8.959948 19.999883 19.999883 19.999883 19.999883-8.959948 19.999883-19.999883-8.959948-19.999883-19.999883-19.999883z" fill="" p-id="12479"></path><path d="M1011.884051 253.618514L947.464428 225.998676l-0.085999-0.032-0.117999-0.046-218.814718-88.63348L691.14593 14.199917a0.251999 0.251999 0 0 1-0.006-0.02c-2.571985-8.45995-10.499938-14.179917-19.133888-14.179917h-319.998125c-8.843948 0-16.615903 5.891965-19.133887 14.179917l-0.008 0.02-37.299782 123.085279L163.565022 188.716894l-0.136 0.058-151.299113 64.84362a20.001883 20.001883 0 0 0-11.849931 21.669873l39.999766 240.000594a20.005883 20.005883 0 0 0 26.051847 15.685908l105.675381-31.225817v504.251045c0 11.043935 8.955948 19.999883 19.999883 19.999883h639.99625c11.043935 0 19.999883-8.955948 19.999883-19.999883V499.747072l105.675381 31.225817a20.005883 20.005883 0 0 0 26.051847-15.685908l39.999766-240.000594a19.995883 19.995883 0 0 0-11.845931-21.667873z m-42.69775 105.631381a20.005883 20.005883 0 0 0-10.567938 0.809995c-9.381945 3.36998-19.207887 0.058-23.89186-8.055953-4.687973-8.123952-2.643985-18.293893 4.967971-24.729855a19.999883 19.999883 0 0 0 0-30.547821c-7.613955-6.435962-9.655943-16.607903-4.969971-24.725855a18.335893 18.335893 0 0 1 5.13597-5.739966l41.833755 17.937895-12.507927 75.05156z m-232.872635-71.975578c7.613955 6.435962 9.655943 16.607903 4.967971 24.729855-4.683973 8.115952-14.513915 11.425933-23.89186 8.055953a19.993883 19.993883 0 0 0-26.445845 15.25991c-1.77799 9.819942-9.563944 16.679902-18.93989 16.679903s-17.161899-6.85996-18.939889-16.679903a19.991883 19.991883 0 0 0-26.445845-15.25991c-9.379945 3.37198-19.207887 0.058-23.89186-8.055953-4.687973-8.123952-2.643985-18.293893 4.967971-24.729855a20.007883 20.007883 0 0 0 5.931966-8.60995l75.509557-75.509557c0.821995 1.72199 1.451991 3.563979 1.80399 5.517967a19.993883 19.993883 0 0 0 26.447845 15.269911c9.379945-3.36998 19.207887-0.058 23.89186 8.055953 4.687973 8.123952 2.643985 18.293893-4.967971 24.729855a19.999883 19.999883 0 0 0 0.002 30.545821zM512.00698 115.001326l-99.999414-74.99956h199.998828l-99.999414 74.99956z m-149.143126-61.859637l122.649281 91.987461-57.393664 94.699445-93.495452-93.495452 28.239835-93.191454z m298.286252 0l28.239835 93.191454-93.495453 93.495452-57.393663-94.699445 122.649281-91.987461z m-493.017111 177.134962c0.401998 0.553997 0.801995 1.111993 1.151993 1.71799 4.687973 8.123952 2.643985 18.293893-4.967971 24.729855a19.999883 19.999883 0 0 0 0 30.547821c7.613955 6.435962 9.655943 16.607903 4.967971 24.729855-4.685973 8.115952-14.513915 11.425933-23.89186 8.055953a19.993883 19.993883 0 0 0-26.445845 15.25991c-1.77799 9.819942-9.563944 16.679902-18.939889 16.679903s-17.161899-6.85996-18.939889-16.679903a19.993883 19.993883 0 0 0-26.445845-15.25991 21.659873 21.659873 0 0 1-6.123964 1.239992l-6.183964-37.099782 125.819263-53.921684z m128.183249 456.995322c7.613955 6.435962 9.655943 16.607903 4.967971 24.729855-4.685973 8.115952-14.515915 11.423933-23.89186 8.055953a19.999883 19.999883 0 0 0-26.445845 15.25991c-1.77799 9.819942-9.563944 16.679902-18.939889 16.679903s-17.161899-6.85996-18.939889-16.679903a19.403886 19.403886 0 0 0-1.059994-3.653978v-119.299301a19.919883 19.919883 0 0 0 1.059994-3.685978c1.77799-9.819942 9.563944-16.679902 18.939889-16.679903s17.161899 6.85996 18.939889 16.679903a19.991883 19.991883 0 0 0 26.445845 15.25991c9.377945-3.37198 19.207887-0.058 23.89186 8.055953 4.687973 8.123952 2.643985 18.293893-4.967971 24.729855a19.999883 19.999883 0 0 0 0 30.547821z m-8.61595 261.450468c-7.613955-6.435962-9.655943-16.607903-4.967971-24.729855 4.681973-8.117952 14.509915-11.429933 23.89186-8.055953a19.999883 19.999883 0 0 0 26.445845-15.25991c1.77799-9.819942 9.563944-16.679902 18.939889-16.679903s17.161899 6.85996 18.939889 16.679903a19.991883 19.991883 0 0 0 26.445846 15.25991c9.381945-3.37198 19.207887-0.058 23.89186 8.055953 4.687973 8.123952 2.643985 18.293893-4.967971 24.729855a19.995883 19.995883 0 0 0-0.012 30.537821 21.553874 21.553874 0 0 1 4.137975 4.735972h-136.869198a21.553874 21.553874 0 0 1 4.137976-4.735972 19.993883 19.993883 0 0 0-0.014-30.537821z m439.995422-411.997586c-7.613955-6.435962-9.655943-16.607903-4.967971-24.729855 4.683973-8.117952 14.507915-11.427933 23.89186-8.055953a19.991883 19.991883 0 0 0 26.445845-15.25991c1.77799-9.819942 9.563944-16.679902 18.939889-16.679903s17.161899 6.85996 18.939889 16.679903c0.227999 1.261993 0.597996 2.479985 1.059994 3.653978v119.301301a19.919883 19.919883 0 0 0-1.059994 3.685979c-1.77799 9.819942-9.563944 16.679902-18.939889 16.679902s-17.161899-6.85996-18.939889-16.679902a19.991883 19.991883 0 0 0-26.445845-15.259911c-9.381945 3.37198-19.207887 0.058-23.89186-8.055953-4.687973-8.123952-2.643985-18.293893 4.967971-24.729855a19.999883 19.999883 0 0 0 0-30.549821z m220.428709-51.1017l-109.795357-32.599809a19.863884 19.863884 0 0 0-1.833989-0.491998C825.541143 439.841423 809.539237 431.997469 792.005339 431.997469c-21.825872 0-41.279758 12.147929-51.571697 30.67582-21.151876-0.353998-41.441757 10.419939-52.349694 29.327828-10.911936 18.909889-10.115941 41.825755 0.783996 59.995649-10.897936 18.169894-11.695931 41.085759-0.783996 59.995648 10.909936 18.907889 31.209817 29.657826 52.349694 29.327828 10.29194 18.527891 29.745826 30.67582 51.571697 30.675821 6.989959 0 13.71992-1.283992 19.999883-3.587979V983.994234h-279.998359V511.997c0-11.043935-8.955948-19.999883-19.999883-19.999883s-19.999883 8.955948-19.999883 19.999883v471.997234H462.823268a59.503651 59.503651 0 0 0-7.643955-20.051882c10.865936-18.159894 11.649932-41.051759 0.749996-59.943649-10.909936-18.909889-31.161817-29.709826-52.349694-29.327828-10.29194-18.527891-29.745826-30.67582-51.571698-30.67582s-41.279758 12.147929-51.571697 30.67582c-21.193876-0.441997-41.441757 10.421939-52.349694 29.327828-10.899936 18.889889-10.115941 41.783755 0.749996 59.943649A59.545651 59.545651 0 0 0 241.192567 983.994234h-29.183829v-195.586854a57.99566 57.99566 0 0 0 19.999883 3.587979c21.825872 0 41.279758-12.147929 51.571697-30.67582 21.099876 0.391998 41.439757-10.421939 52.349694-29.327828 10.911936-18.909889 10.115941-41.825755-0.783996-59.995648 10.897936-18.169894 11.695931-41.085759 0.783996-59.995649-10.909936-18.909889-31.149817-29.671826-52.349694-29.327828-10.29194-18.527891-29.745826-30.67582-51.571697-30.67582-6.989959 0-13.71992 1.283992-19.999883 3.587979V471.997234a19.993883 19.993883 0 0 0-8.305952-16.223905 20.009883 20.009883 0 0 0-18.017894-2.749983l-109.795357 32.599809-18.72789-112.363342c10.879936 11.621932 26.161847 18.73789 42.847749 18.73789 21.825872 0 41.279758-12.147929 51.571698-30.67582 21.123876 0.343998 41.441757-10.419939 52.349693-29.327828 10.911936-18.909889 10.115941-41.825755-0.783995-59.995649 10.443939-17.413898 11.579932-39.17777 2.051988-57.607662l102.239401-38.673774 110.425353 110.425353c9.199946 9.199946 24.545856 7.279957 31.245816-3.777977l42.895749-70.779586V351.997938c0 11.043935 8.955948 19.999883 19.999883 19.999882s19.999883-8.955948 19.999883-19.999882v-140.413178l36.747784 60.631645c-10.775937 18.135894-11.537932 40.94176-0.667996 59.77765 10.909936 18.909889 31.221817 29.683826 52.349694 29.327828 10.29194 18.527891 29.745826 30.67582 51.571697 30.67582s41.279758-12.147929 51.571698-30.67582c21.141876 0.343998 41.441757-10.419939 52.349694-29.327828 10.911936-18.909889 10.115941-41.825755-0.783996-59.995649 10.897936-18.169894 11.695931-41.085759 0.783996-59.995648a58.04166 58.04166 0 0 0-15.545909-17.511898l141.045173 55.303676c-0.461997 0.725996-0.911995 1.459991-1.343992 2.207987-10.911936 18.909889-10.115941 41.825755 0.783995 59.995649-10.897936 18.169894-11.695931 41.085759-0.783995 59.995648 10.735937 18.609891 30.511821 29.339828 51.335699 29.337828 0.323998 0 0.647996-0.004 0.973995-0.008a59.919649 59.919649 0 0 0 7.925953 11.133935l-12.193928 73.165572z" fill="" p-id="12480"></path><path d="M455.929309 372.00382c-10.909936-18.907889-31.161817-29.649826-52.349694-29.327828-10.29194-18.527891-29.745826-30.67582-51.571698-30.67582s-41.279758 12.147929-51.571697 30.67582c-21.193876-0.455997-41.441757 10.419939-52.349694 29.327828-10.911936 18.909889-10.115941 41.825755 0.783996 59.995649-10.897936 18.169894-11.695931 41.085759-0.783996 59.995648 10.909936 18.909889 31.251817 29.667826 52.349694 29.327828 10.29194 18.527891 29.745826 30.67582 51.571697 30.675821s41.279758-12.147929 51.571698-30.675821c0.337998 0.006 0.675996 0.01 1.013994 0.01 20.819878-0.002 40.601762-10.731937 51.3357-29.337828 10.911936-18.909889 10.115941-41.825755-0.783996-59.995648 10.897936-18.169894 11.695931-41.085759 0.783996-59.995649z m-39.613768 75.269559c7.613955 6.435962 9.655943 16.607903 4.967971 24.729855-4.685973 8.115952-14.511915 11.425933-23.89186 8.055953a19.993883 19.993883 0 0 0-26.445846 15.259911c-1.77799 9.819942-9.563944 16.679902-18.939889 16.679902s-17.161899-6.85996-18.939889-16.679902a19.991883 19.991883 0 0 0-26.445845-15.259911c-9.379945 3.37198-19.207887 0.058-23.89186-8.055953-4.687973-8.123952-2.643985-18.293893 4.967971-24.729855a19.999883 19.999883 0 0 0 0-30.547821c-7.613955-6.435962-9.655943-16.607903-4.967971-24.729855 4.681973-8.115952 14.509915-11.431933 23.89186-8.055953a19.999883 19.999883 0 0 0 26.445845-15.25991c1.77799-9.819942 9.563944-16.679902 18.939889-16.679902s17.161899 6.85996 18.939889 16.679902a19.991883 19.991883 0 0 0 26.445846 15.25991c9.381945-3.37398 19.207887-0.058 23.89186 8.055953 4.687973 8.123952 2.643985 18.293893-4.967971 24.729855a19.999883 19.999883 0 0 0 0 30.547821zM620.434345 754.673578c-21.129876-0.419998-41.441757 10.419939-52.349694 29.327828-10.911936 18.909889-10.115941 41.825755 0.783996 59.995649-10.897936 18.169894-11.695931 41.085759-0.783996 59.995648 10.909936 18.909889 31.221817 29.739826 52.349694 29.327828 10.29194 18.527891 29.745826 30.67582 51.571697 30.675821s41.279758-12.147929 51.571698-30.675821c21.141876 0.349998 41.441757-10.419939 52.349694-29.327828 10.911936-18.909889 10.115941-41.825755-0.783996-59.995648 10.897936-18.169894 11.695931-41.085759 0.783996-59.995649-10.909936-18.909889-31.191817-29.699826-52.349694-29.327828-10.29194-18.527891-29.745826-30.67582-51.571698-30.67582s-41.279758 12.147929-51.571697 30.67582z m70.511586 26.003848a19.991883 19.991883 0 0 0 26.445846 15.25991c9.379945-3.36998 19.207887-0.058 23.89186 8.055953 4.687973 8.123952 2.643985 18.293893-4.967971 24.729855a19.999883 19.999883 0 0 0 0 30.547821c7.613955 6.435962 9.655943 16.607903 4.967971 24.729855-4.683973 8.115952-14.513915 11.425933-23.89186 8.055953a19.991883 19.991883 0 0 0-26.445846 15.259911c-1.77799 9.819942-9.563944 16.679902-18.939889 16.679902s-17.161899-6.85996-18.939889-16.679902a19.991883 19.991883 0 0 0-26.445845-15.259911c-9.379945 3.37198-19.207887 0.058-23.89186-8.055953-4.687973-8.123952-2.643985-18.293893 4.967971-24.729855a19.999883 19.999883 0 0 0 0-30.547821c-7.613955-6.435962-9.655943-16.607903-4.967971-24.729855 4.683973-8.117952 14.509915-11.429933 23.89186-8.055953a19.999883 19.999883 0 0 0 26.445845-15.25991c1.77799-9.819942 9.563944-16.679902 18.939889-16.679903s17.161899 6.85796 18.939889 16.679903z" fill="" p-id="12481"></path></svg>